<svg height="511pt" viewBox="0 0 511.9995 511" width="511pt" xmlns="http://www.w3.org/2000/svg"><path d="m117.507812 177.992188c-5.53125 0-10 4.46875-10 10 0 5.519531 4.46875 10 10 10 5.519532 0 10-4.480469 10-10 0-5.53125-4.480468-10-10-10zm0 0"/><path d="m212.644531 94.140625c-3.902343-3.902344-10.234375-3.902344-14.140625 0l-59.160156 59.160156c-3.90625 3.90625-3.90625 10.238281 0 14.140625 3.90625 3.90625 10.238281 3.90625 14.144531 0l59.15625-59.15625c3.90625-3.90625 3.90625-10.238281 0-14.144531zm0 0"/><path d="m388.351562 298.125c-1.875-1.875-4.421874-2.925781-7.070312-2.925781-2.652344 0-5.195312 1.050781-7.070312 2.925781l-104.992188-104.988281 36.554688-36.554688c10.921874 5.226563 24.738281 3.539063 34.148437-5.871093 11.695313-11.695313 11.695313-30.730469 0-42.429688l-98.996094-98.996094c-11.742187-11.710937-30.691406-11.722656-42.421875.007813-9.402344 9.40625-11.097656 23.21875-5.867187 34.148437l-129.679688 129.679688c-10.925781-5.230469-24.738281-3.542969-34.148437 5.867187-11.722656 11.722657-11.726563 30.707031 0 42.433594l98.988281 98.988281c11.699219 11.695313 30.730469 11.695313 42.429687 0 9.21875-9.21875 11.164063-22.988281 5.855469-34.136718l36.566407-36.566407 104.988281 104.988281c-3.898438 3.902344-3.902344 10.238282.003906 14.140626l108.992187 108.984374c19.53125 19.542969 51.160157 19.558594 70.703126.003907 19.546874-19.535157 19.554687-51.160157 0-70.703125zm-175.707031-274.6875c3.921875-3.925781 10.242188-3.898438 14.148438 0l98.984375 98.984375c3.902344 3.902344 3.902344 10.25 0 14.148437-3.90625 3.90625-10.226563 3.910157-14.136719 0l-98.996094-98.996093c-3.90625-3.90625-3.90625-10.230469 0-14.136719zm-56.558593 282.828125c-3.902344 3.902344-10.246094 3.902344-14.148438 0l-98.988281-98.988281c-3.898438-3.898438-3.898438-10.246094 0-14.144532 3.910156-3.910156 10.226562-3.910156 14.140625 0l98.996094 98.996094c3.898437 3.898438 3.898437 10.238282 0 14.136719zm7.070312-35.347656-84.855469-84.855469 127.273438-127.273438 84.855469 84.855469zm63.632812-35.355469 28.289063-28.285156 104.988281 104.988281-28.285156 28.289063zm256.40625 228.121094c-11.722656 11.726562-30.6875 11.734375-42.417968 0l-101.921875-101.917969v-.003906l42.414062-42.414063c.003907-.003906.007813-.003906.011719-.007812l101.917969 101.925781c11.726562 11.722656 11.734375 30.6875-.003907 42.417969zm0 0"/><path d="m10 512.472656h279.992188c5.523437 0 10-4.476562 10-10v-20c0-13.035156-8.359376-24.152344-20-28.28125v-31.71875c0-16.539062-13.457032-29.996094-30-29.996094h-199.992188c-16.542969 0-30 13.457032-30 29.996094v31.71875c-11.640625 4.128906-20 15.246094-20 28.28125v20c0 5.523438 4.476562 10 10 10zm30-90c0-5.511718 4.484375-10 10-10h199.992188c5.515624 0 10 4.488282 10 10v30h-219.992188zm-20 60c0-5.515625 4.484375-10 10-10h239.992188c5.515624 0 10 4.484375 10 10v10h-259.992188zm0 0"/></svg>