<svg height="478pt" viewBox="-10 0 478 478.00302" width="478pt" xmlns="http://www.w3.org/2000/svg"><path d="m141.316406 157h53.253906l27.648438 44.324219c1.4375 2.378906 4.015625 3.828125 6.792969 3.820312 2.777343-.003906 5.347656-1.46875 6.773437-3.851562l27.648438-44.292969h53.25c15.441406 0 28.316406-12.308594 28.316406-27.746094v-101.5c0-15.441406-12.875-27.753906-28.316406-27.753906h-175.367188c-15.4375 0-28.316406 12.3125-28.316406 27.753906v101.5c0 15.4375 12.878906 27.746094 28.316406 27.746094zm-12.316406-129.246094c0-6.617187 5.703125-11.753906 12.316406-11.753906h175.367188c6.617187 0 12.316406 5.136719 12.316406 11.753906v101.5c0 6.617188-5.699219 11.746094-12.316406 11.746094h-57.683594c-2.773438.050781-5.332031 1.515625-6.78125 3.882812l-23.21875 37.179688-23.214844-37.210938c-1.453125-2.359374-4.011718-3.8125-6.785156-3.851562h-57.683594c-6.613281 0-12.316406-5.128906-12.316406-11.746094zm0 0"/><path d="m103.351562 309.878906c34.855469 0 63.214844-27.4375 63.214844-61.164062 0-33.726563-28.359375-61.164063-63.214844-61.164063-34.855468 0-63.210937 27.4375-63.210937 61.164063 0 33.726562 28.359375 61.164062 63.210937 61.164062zm0-106.328125c26.035157 0 47.214844 20.261719 47.214844 45.164063s-21.179687 45.164062-47.214844 45.164062c-26.03125 0-47.210937-20.257812-47.210937-45.164062s21.179687-45.164063 47.210937-45.164063zm0 0"/><path d="m8.074219 478h190.554687c4.417969 0 8.371094-3.335938 8.371094-7.753906v-47.972656c0-55-46.550781-99.746094-103.5-99.746094-56.945312 0-103.5 44.746094-103.5 99.746094v47.972656c.0273438 2.105468.898438 4.109375 2.414062 5.566406 1.519532 1.457031 3.554688 2.246094 5.660157 2.1875zm7.925781-55.726562c0-46.175782 39.375-83.746094 87.5-83.746094s87.5 37.574218 87.5 83.746094v39.726562h-175zm0 0"/><path d="m291.4375 248.714844c0 33.726562 28.359375 61.164062 63.214844 61.164062 34.851562 0 63.210937-27.4375 63.210937-61.164062 0-33.726563-28.355469-61.164063-63.210937-61.164063-34.859375 0-63.214844 27.4375-63.214844 61.164063zm63.214844-45.164063c26.03125 0 47.210937 20.261719 47.210937 45.164063s-21.179687 45.164062-47.210937 45.164062c-26.035156 0-47.214844-20.257812-47.214844-45.164062s21.179688-45.164063 47.214844-45.164063zm0 0"/><path d="m251 422.273438v47.972656c0 4.417968 3.953125 7.753906 8.371094 7.753906h190.558594c2.101562.058594 4.140624-.730469 5.660156-2.1875 1.515625-1.457031 2.386718-3.460938 2.410156-5.566406v-47.972656c0-55-46.550781-99.746094-103.5-99.746094-56.945312 0-103.5 44.746094-103.5 99.746094zm191 0v39.726562h-175v-39.726562c0-46.175782 39.375-83.746094 87.5-83.746094s87.5 37.574218 87.5 83.746094zm0 0"/></svg>