<?xml version="1.0" encoding="iso-8859-1"?>
<!-- Generator: Adobe Illustrator 19.0.0, SVG Export Plug-In . SVG Version: 6.00 Build 0)  -->
<svg version="1.1" id="Capa_1" xmlns="http://www.w3.org/2000/svg" xmlns:xlink="http://www.w3.org/1999/xlink" x="0px" y="0px"
	 viewBox="0 0 467.6 467.6" style="enable-background:new 0 0 467.6 467.6;" xml:space="preserve">
<g>
	<g>
		<g>
			<path d="M165.41,100.32h138.62c2.671-0.164,4.8-2.294,4.965-4.965c0.18-2.922-2.043-5.436-4.965-5.615H165.41
				c-0.217-0.013-0.434-0.013-0.651,0c-2.922,0.18-5.144,2.694-4.965,5.615C159.974,98.277,162.488,100.5,165.41,100.32z"/>
			<path d="M179.35,296.46v-0.04c-12.08-0.001-23.662,4.815-32.18,13.38c-8.536,8.54-13.329,20.121-13.325,32.195
				c0.008,25.14,20.395,45.513,45.535,45.505c25.14-0.008,45.513-20.395,45.505-45.535S204.49,296.452,179.35,296.46z
				 M204.022,366.693c-13.652,13.637-35.775,13.625-49.413-0.027c-13.637-13.652-13.625-35.775,0.027-49.413
				c13.653-13.637,35.775-13.625,49.413,0.027v-0.04c6.567,6.555,10.246,15.461,10.22,24.74
				C214.268,351.251,210.582,360.141,204.022,366.693z"/>
			<path d="M339.57,158.44H129.85c-2.671,0.164-4.8,2.294-4.965,4.965c-0.18,2.922,2.043,5.436,4.965,5.615h209.72
				c2.671-0.164,4.8-2.294,4.965-4.965C344.714,161.134,342.491,158.62,339.57,158.44z"/>
			<path d="M391.01,59.66l-0.16-0.4l-0.1-0.2v-0.1l-0.14-0.18l-58-58l-0.34-0.3l-0.22-0.12h-0.14l-0.24-0.1h-0.24
				c-0.401-0.137-0.818-0.224-1.24-0.26H95.61v0.02C84.953,0.053,76.323,8.684,76.29,19.34v355.32
				c0.033,10.656,8.664,19.287,19.32,19.32h41.5c1.316,2.233,3.031,4.206,5.06,5.82v62.1c-0.202,1.326,0.129,2.677,0.92,3.76
				c0.003,0.004,0.006,0.007,0.009,0.011c1.851,2.253,5.178,2.58,7.431,0.729l28.34-23.26l27.86,23.12
				c0.952,0.835,2.174,1.296,3.44,1.3c0.034,0,0.068-0.001,0.101-0.001c2.838-0.066,5.085-2.421,5.019-5.259v-61.46
				c2.52-1.83,4.66-4.133,6.3-6.78h150.38c5.128-0.002,10.043-2.046,13.66-5.68c3.63-3.612,5.673-8.519,5.68-13.64V61.18
				C391.286,60.661,391.185,60.149,391.01,59.66z M335.07,18.18l40,40l-31.28-0.02c-2.312-0.001-4.528-0.922-6.16-2.56
				c-1.638-1.632-2.559-3.848-2.56-6.16V18.18z M204.97,451.16l-22.82-18.9c-1.947-1.598-4.753-1.598-6.7,0l-23.04,18.88v-46.72
				c0,0,6.68,0.86,10.42-1.14c4.069,4.878,10.088,7.704,16.44,7.72c6.31-0.174,12.261-2.972,16.42-7.72
				c1.928,0.712,3.949,1.143,6,1.28c1.091,0.094,2.189,0.094,3.28,0V451.16z M227.75,359.62c2.745,3.579,3.121,8.441,0.96,12.4
				c-2.106,3.641-6.131,5.731-10.32,5.36c-2.909-0.242-5.466,1.912-5.72,4.82c0.247,2.352-0.162,4.726-1.18,6.86
				c-1.982,3.81-6.036,6.081-10.32,5.78c-1.217-0.089-2.412-0.373-3.54-0.84h-0.12h-0.14h-0.16h-0.38h-0.12h-2.38
				c-0.963-0.607-2.12-0.829-3.24-0.62h-0.88l-0.32,0.18l-0.18,0.18l-0.16,0.2l-0.16,0.22h-0.12h-0.24
				c-1.074,2.295-2.919,4.14-5.214,5.214c-5.412,2.533-11.853,0.198-14.386-5.214c-1.238-2.638-4.374-3.782-7.02-2.56
				c-2.2,1.814-5.025,2.692-7.866,2.444c-5.986-0.522-10.416-5.798-9.894-11.784c0.027-0.321,0.025-0.644-0.007-0.964
				c-0.286-2.913-2.88-5.042-5.793-4.756c-2.505,0.202-5.003-0.475-7.064-1.914c-4.899-3.421-6.097-10.167-2.676-15.066
				c0.167-0.235,0.314-0.484,0.44-0.743c1.275-2.622,0.183-5.782-2.44-7.057c-2.285-1.074-4.124-2.913-5.198-5.198
				c-2.547-5.418-0.22-11.875,5.198-14.422c0.306-0.145,0.598-0.318,0.871-0.519c2.35-1.726,2.856-5.031,1.129-7.381
				c-1.41-2.065-2.061-4.555-1.843-7.046c0.521-5.953,5.77-10.356,11.723-9.834c0.321,0.027,0.644,0.025,0.964-0.007
				c2.913-0.286,5.042-2.88,4.756-5.793c-0.341-4.193,1.771-8.206,5.42-10.3c3.646-2.095,8.175-1.893,11.62,0.52
				c0.235,0.167,0.484,0.314,0.743,0.44c2.622,1.275,5.782,0.183,7.057-2.44c1.755-3.827,5.59-6.269,9.8-6.24v-0.04
				c3.95,0.584,7.244,3.323,8.54,7.1c1.238,2.638,4.374,3.782,7.02,2.56c3.571-2.762,8.439-3.146,12.4-0.98
				c3.641,2.106,5.731,6.131,5.36,10.32c-0.242,2.909,1.912,5.466,4.82,5.72c2.352-0.247,4.726,0.161,6.86,1.18
				c0.416,0.217,0.818,0.461,1.203,0.731c4.895,3.428,6.085,10.174,2.657,15.069c-1.663,2.387-1.081,5.669,1.3,7.34
				c2.166,0.961,4.021,2.505,5.36,4.46c0.23,0.367,0.438,0.748,0.623,1.14c2.562,5.435,0.232,11.918-5.203,14.48
				C227.662,353.857,226.527,356.985,227.75,359.62z M382.55,374.8c-0.001,2.312-0.922,4.528-2.56,6.16
				c-1.63,1.643-3.846,2.572-6.16,2.58H232.61v-0.06c8.154-5.506,11.497-15.866,8.1-25.1c1.035-0.856,1.987-1.808,2.843-2.843
				c7.504-9.074,6.231-22.513-2.843-30.017c0.459-1.245,0.802-2.53,1.023-3.839c1.966-11.643-5.879-22.675-17.523-24.641
				c-0.221-1.278-0.558-2.534-1.006-3.751c-4.083-11.08-16.374-16.752-27.454-12.669c-0.848-1.023-1.789-1.964-2.812-2.812
				c-9.074-7.521-22.527-6.262-30.048,2.812c-5.932-2.18-12.525-1.616-18,1.54c-5.504,3.156-9.311,8.606-10.38,14.86
				c-1.282,0.222-2.541,0.561-3.761,1.012c-11.075,4.095-16.734,16.393-12.639,27.468c-1.035,0.856-1.987,1.808-2.843,2.843
				c-7.504,9.074-6.231,22.513,2.843,30.017c-3.42,9.217-0.12,19.578,8,25.12h-30.5c-4.818-0.022-8.718-3.922-8.74-8.74V19.34
				c0.022-4.818,3.922-8.718,8.74-8.74h228.8v38.9c0.007,5.121,2.05,10.028,5.68,13.64c3.61,3.617,8.509,5.653,13.62,5.66h38.84
				V374.8z"/>
			<path d="M339.59,276.04H232.83c-0.217-0.013-0.434-0.013-0.651,0c-2.922,0.18-5.144,2.694-4.964,5.616
				c0.18,2.922,2.694,5.144,5.616,4.964h106.76c2.671-0.164,4.8-2.294,4.964-4.964C344.734,278.734,342.511,276.22,339.59,276.04z"
				/>
			<path d="M344.534,258.135c0.18-2.922-2.043-5.436-4.964-5.616H129.85c-0.217-0.013-0.434-0.013-0.651,0
				c-2.922,0.18-5.144,2.694-4.964,5.616c0.18,2.922,2.694,5.144,5.616,4.964h209.72
				C342.241,262.936,344.37,260.806,344.534,258.135z"/>
			<path d="M165.41,113.88c-2.671,0.164-4.8,2.294-4.965,4.965c-0.18,2.922,2.043,5.436,4.965,5.615h138.62
				c2.671-0.164,4.8-2.294,4.965-4.965c0.18-2.922-2.043-5.436-4.965-5.615H165.41z"/>
			<path d="M129.85,239.58h209.72c2.671-0.164,4.8-2.294,4.965-4.965c0.18-2.922-2.043-5.436-4.965-5.615H129.85
				c-0.217-0.013-0.434-0.013-0.651,0c-2.922,0.18-5.144,2.694-4.965,5.615C124.414,237.537,126.928,239.76,129.85,239.58z"/>
			<path d="M129.85,205.48c-2.671,0.164-4.8,2.294-4.965,4.965c-0.18,2.922,2.043,5.436,4.965,5.615h209.72
				c2.671-0.164,4.8-2.294,4.965-4.965c0.18-2.922-2.043-5.436-4.965-5.615H129.85z"/>
			<path d="M339.57,181.96H129.85c-0.217-0.013-0.434-0.013-0.651,0c-2.922,0.18-5.144,2.694-4.965,5.615
				c0.18,2.922,2.694,5.144,5.615,4.965h209.72c2.671-0.164,4.8-2.294,4.965-4.965C344.714,184.654,342.491,182.14,339.57,181.96z"
				/>
		</g>
	</g>
</g>
<g>
</g>
<g>
</g>
<g>
</g>
<g>
</g>
<g>
</g>
<g>
</g>
<g>
</g>
<g>
</g>
<g>
</g>
<g>
</g>
<g>
</g>
<g>
</g>
<g>
</g>
<g>
</g>
<g>
</g>
</svg>
