<?xml version="1.0" encoding="utf-8"?>
<!-- Generator: Adobe Illustrator 21.1.0, SVG Export Plug-In . SVG Version: 6.00 Build 0)  -->
<svg version="1.1" id="Capa_1" xmlns="http://www.w3.org/2000/svg" xmlns:xlink="http://www.w3.org/1999/xlink" x="0px" y="0px"
	 viewBox="0 0 488.2 480" style="enable-background:new 0 0 488.2 480;" xml:space="preserve">
<g>
	<g>
		<path d="M88,40c-26.5,0-48,21.5-48,48c0,26.5,21.5,48,48,48c26.5,0,48-21.5,48-48S114.5,40,88,40z M88,120c-17.7,0-32-14.3-32-32
			s14.3-32,32-32s32,14.3,32,32S105.7,120,88,120z"/>
	</g>
</g>
<g>
	<g>
		<path d="M175.7,317.7l-48-160c-1-3.4-4.1-5.7-7.7-5.7H56c-3.5,0-6.7,2.3-7.7,5.7l-48,160c-0.7,2.4-0.3,5.1,1.3,7.1
			c1.5,2,3.9,3.2,6.4,3.2h32v104c0,4.4,3.6,8,8,8h80c4.4,0,8-3.6,8-8V328h32c4.4,0,8-3.6,8-8C176,319.2,175.9,318.4,175.7,317.7z
			 M128,312c-4.4,0-8,3.6-8,8v104H96V312H80v112H56V320c0-4.4-3.6-8-8-8H18.8L62,168H114l43.2,144H128z"/>
	</g>
</g>
<g>
	<g>
		<path d="M245,40c-26.5,0-48,21.5-48,48c0,26.5,21.5,48,48,48c26.5,0,48-21.5,48-48S271.5,40,245,40z M245,120
			c-17.7,0-32-14.3-32-32s14.3-32,32-32s32,14.3,32,32S262.7,120,245,120z"/>
	</g>
</g>
<g>
	<g>
		<path d="M332.7,317.7l-48-160c-1-3.4-4.1-5.7-7.7-5.7h-64c-3.5,0-6.6,2.3-7.7,5.7l-48,160c-0.7,2.4-0.3,5.1,1.3,7.1
			c1.5,2,3.9,3.2,6.4,3.2h32v104c0,4.4,3.6,8,8,8h80c4.4,0,8-3.6,8-8V328h32c4.4,0,8-3.6,8-8C333,319.2,332.9,318.4,332.7,317.7z
			 M285,312c-4.4,0-8,3.6-8,8v104h-24V312h-16v112h-24V320c0-4.4-3.6-8-8-8h-29.2L219,168H271l43.2,144H285z"/>
	</g>
</g>
<g>
	<g>
		<path d="M400.2,40c-26.5,0-48,21.5-48,48c0,26.5,21.5,48,48,48c26.5,0,48-21.5,48-48S426.7,40,400.2,40z M400.2,120
			c-17.7,0-32-14.3-32-32s14.3-32,32-32s32,14.3,32,32S417.8,120,400.2,120z"/>
	</g>
</g>
<g>
	<g>
		<path d="M487.8,317.7l-48-160c-1-3.4-4.1-5.7-7.7-5.7h-64c-3.5,0-6.7,2.3-7.7,5.7l-48,160c-0.7,2.4-0.3,5.1,1.3,7.1
			c1.5,2,3.9,3.2,6.4,3.2h32v104c0,4.4,3.6,8,8,8h80c4.4,0,8-3.6,8-8V328h32c4.4,0,8-3.6,8-8C488.2,319.2,488.1,318.4,487.8,317.7z
			 M440.2,312c-4.4,0-8,3.6-8,8v104h-24V312h-16v112h-24V320c0-4.4-3.6-8-8-8h-29.2l43.2-144h52.1l43.2,144H440.2z"/>
	</g>
</g>
</svg>
